<?xml version="1.0" encoding="iso-8859-1"?>
<!-- Generator: Adobe Illustrator 19.0.0, SVG Export Plug-In . SVG Version: 6.00 Build 0)  -->
<svg version="1.1" id="Capa_1" xmlns="http://www.w3.org/2000/svg" xmlns:xlink="http://www.w3.org/1999/xlink" x="0px" y="0px"
	 viewBox="0 0 512.006 512.006" style="enable-background:new 0 0 512.006 512.006;" xml:space="preserve">
<g>
	<g>
		<path d="M358.304,287.224h-207.49c-4.781,0-8.645,3.873-8.645,8.645c0,25.642,10.841,40.469,20.395,53.55
			c7.928,10.841,14.187,19.4,14.187,32.905c0,14.299,11.637,25.936,25.936,25.936h103.745c14.3,0,25.936-11.637,25.936-25.936
			c0-13.504,6.259-22.063,14.187-32.905c9.553-13.081,20.395-27.907,20.395-53.55C366.95,291.097,363.085,287.224,358.304,287.224z
			 M332.575,339.218c-8.602,11.775-17.507,23.956-17.507,43.106c0,4.764-3.873,8.645-8.645,8.645H202.678
			c-4.772,0-8.645-3.882-8.645-8.645c0-19.15-8.905-31.331-17.507-43.106c-7.426-10.167-14.516-19.85-16.513-34.703h189.076
			C347.091,319.377,340.002,329.06,332.575,339.218z"/>
	</g>
</g>
<g>
	<g>
		<path d="M342.889,207.634c-3.328-3.424-8.801-3.501-12.225-0.173l-2.602,2.524c-21.026,20.386-56.213,54.509-56.213,85.884
			c0,4.772,3.865,8.645,8.645,8.645c4.772,0,8.645-3.873,8.637-8.645c0-24.052,33.155-56.195,50.965-73.469l2.62-2.542
			C346.14,216.531,346.218,211.058,342.889,207.634z"/>
	</g>
</g>
<g>
	<g>
		<path d="M383.713,179.044c-1.608-9.104-6.657-17.031-14.23-22.331c-7.565-5.3-16.763-7.34-25.833-5.732l-187.312,33.017
			c-18.778,3.311-31.366,21.285-28.054,40.063c2.957,16.755,17.593,28.582,34.046,28.582c1.98,0,3.994-0.173,6.017-0.527
			l187.312-33.017c9.095-1.608,17.023-6.657,22.323-14.222C383.281,197.312,385.321,188.139,383.713,179.044z M363.811,194.969
			c-2.646,3.778-6.614,6.303-11.161,7.107l-187.312,33.017c-9.311,1.643-18.372-4.643-20.023-14.031
			c-1.651-9.389,4.634-18.38,14.032-20.031l187.303-33.017c1.02-0.182,2.032-0.268,3.035-0.268c3.527,0,6.942,1.072,9.89,3.138
			c3.778,2.654,6.303,6.622,7.107,11.17S366.465,191.182,363.811,194.969z"/>
	</g>
</g>
<g>
	<g>
		<path d="M383.704,126.376c-1.599-9.095-6.648-17.023-14.222-22.323c-7.565-5.3-16.763-7.349-25.833-5.732l-187.312,33.017
			c-18.778,3.311-31.366,21.276-28.054,40.063c2.957,16.755,17.585,28.582,34.046,28.582c1.98,0,3.994-0.173,6.017-0.527
			l187.312-33.008c9.095-1.608,17.023-6.657,22.323-14.222S385.321,135.471,383.704,126.376z M363.811,142.301
			c-2.646,3.787-6.614,6.303-11.161,7.107l-187.312,33.017c-9.38,1.669-18.372-4.643-20.023-14.023
			c-1.651-9.389,4.634-18.372,14.032-20.031l187.312-33.017c1.012-0.182,2.023-0.268,3.035-0.268c3.519,0,6.942,1.072,9.89,3.13
			c3.787,2.646,6.303,6.614,7.107,11.161C367.486,133.923,366.465,138.514,363.811,142.301z"/>
	</g>
</g>
<g>
	<g>
		<path d="M383.722,73.717c-3.311-18.778-21.224-31.331-40.063-28.054L156.347,78.679c-18.769,3.311-31.357,21.276-28.046,40.054
			c2.957,16.755,17.593,28.582,34.046,28.582c1.98,0,3.986-0.173,6.017-0.527l187.312-33.008
			C374.445,110.468,387.033,92.503,383.722,73.717z M352.667,96.748l-187.312,33.017c-9.354,1.651-18.372-4.643-20.023-14.023
			c-1.651-9.398,4.634-18.38,14.023-20.031l187.312-33.017c1.012-0.182,2.023-0.268,3.009-0.268c8.23,0,15.536,5.914,17.014,14.291
			C368.342,86.114,362.056,95.097,352.667,96.748z"/>
	</g>
</g>
<g>
	<g>
		<path d="M340.84,28.579C337.529,9.801,319.616-2.77,300.777,0.524L198.614,18.533c-9.095,1.608-17.023,6.657-22.323,14.222
			c-5.3,7.573-7.34,16.746-5.732,25.841c1.599,9.095,6.648,17.023,14.213,22.331c5.888,4.115,12.735,6.259,19.763,6.259
			c2.023,0,4.055-0.173,6.086-0.536l102.172-18.008C331.564,65.33,344.152,47.365,340.84,28.579z M309.777,51.619L207.606,69.627
			c-4.53,0.787-9.138-0.207-12.916-2.862s-6.303-6.622-7.107-11.17c-0.795-4.547,0.225-9.138,2.87-12.916
			c2.646-3.787,6.614-6.311,11.17-7.115l102.163-18c1.011-0.182,2.023-0.268,3.009-0.268c8.23,0,15.536,5.913,17.006,14.291
			C325.452,40.985,319.166,49.968,309.777,51.619z"/>
	</g>
</g>
<g>
	<g>
		<path d="M208.487,238.317c-1.72-1.98-3.467-3.934-5.23-5.853c-3.233-3.527-8.697-3.743-12.216-0.527
			c-3.519,3.225-3.752,8.697-0.519,12.216c1.651,1.798,3.294,3.631,4.919,5.499c16.279,18.769,24.536,34.322,24.536,46.218
			c0,4.772,3.865,8.645,8.645,8.645c4.772,0,8.645-3.873,8.637-8.645C237.259,279.461,227.845,260.64,208.487,238.317z"/>
	</g>
</g>
<g>
	<g>
		<path d="M306.449,425.551H202.704c-14.3,0-25.936,11.637-25.936,25.936s11.637,25.936,25.936,25.936h103.745
			c14.3,0,25.936-11.637,25.936-25.936S320.748,425.551,306.449,425.551z M306.449,460.133H202.704
			c-4.772,0-8.645-3.882-8.645-8.645s3.873-8.645,8.645-8.645h103.745c4.772,0,8.645,3.882,8.645,8.645
			S311.221,460.133,306.449,460.133z"/>
	</g>
</g>
<g>
	<g>
		<path d="M306.449,390.969H202.704c-14.3,0-25.936,11.637-25.936,25.936s11.637,25.936,25.936,25.936h103.745
			c14.3,0,25.936-11.637,25.936-25.936S320.748,390.969,306.449,390.969z M306.449,425.551H202.704
			c-4.772,0-8.645-3.882-8.645-8.645s3.873-8.645,8.645-8.645h103.745c4.772,0,8.645,3.882,8.645,8.645
			S311.221,425.551,306.449,425.551z"/>
	</g>
</g>
<g>
	<g>
		<path d="M306.449,460.133H202.704c-4.781,0-8.645,3.873-8.645,8.645v23.516c0,10.867,8.836,19.712,19.712,19.712h81.604
			c10.876,0,19.72-8.844,19.72-19.712v-23.516C315.094,464.006,311.23,460.133,306.449,460.133z M297.795,492.294
			c0,1.34-1.089,2.421-2.421,2.421H213.77c-1.331,0-2.421-1.089-2.421-2.421v-14.87h86.446V492.294z"/>
	</g>
</g>
<g>
</g>
<g>
</g>
<g>
</g>
<g>
</g>
<g>
</g>
<g>
</g>
<g>
</g>
<g>
</g>
<g>
</g>
<g>
</g>
<g>
</g>
<g>
</g>
<g>
</g>
<g>
</g>
<g>
</g>
</svg>
